<?xml version="1.0" standalone="no"?>
<!DOCTYPE svg PUBLIC "-//W3C//DTD SVG 20010904//EN"
 "http://www.w3.org/TR/2001/REC-SVG-20010904/DTD/svg10.dtd">
<svg version="1.0" xmlns="http://www.w3.org/2000/svg"
 width="410.000000pt" height="410.000000pt" viewBox="0 0 410.000000 410.000000"
 preserveAspectRatio="xMidYMid meet">

<g transform="translate(0.000000,410.000000) scale(0.100000,-0.100000)"
fill="#000000" stroke="none">
<path d="M873 3851 c-74 -34 -152 -90 -168 -120 -13 -26 -15 -137 -15 -924 l0
-894 23 -33 c17 -25 122 -90 442 -275 231 -133 421 -249 423 -257 2 -11 -35
-37 -117 -85 l-121 -68 0 -61 0 -61 349 -201 349 -200 182 105 182 105 39 -18
c39 -17 39 -17 39 -74 0 -75 -17 -95 -129 -160 -132 -75 -180 -141 -168 -231
13 -95 77 -160 195 -198 61 -20 87 -23 174 -19 128 5 166 20 389 150 185 108
235 128 318 128 70 0 124 -18 213 -70 36 -22 73 -40 81 -40 22 0 40 27 33 52
-7 30 -151 112 -231 133 -134 34 -206 15 -430 -115 -94 -55 -197 -111 -228
-125 -134 -62 -343 -33 -409 56 -26 34 -26 94 0 128 10 14 63 52 116 84 108
66 140 100 159 174 l13 52 49 -31 c95 -59 152 -81 198 -74 64 10 192 89 225
138 l27 42 3 849 c3 954 5 920 -67 992 -27 28 -339 212 -998 592 -527 303
-971 557 -986 562 -43 16 -107 13 -154 -8z m342 -121 c1126 -648 1737 -1004
1768 -1030 21 -18 37 -36 35 -41 -2 -6 -52 -38 -112 -73 l-109 -64 -27 26
c-15 15 -466 279 -1001 587 -716 412 -984 561 -1011 564 -21 1 -38 6 -38 10 0
22 115 104 180 128 68 25 111 11 315 -107z m585 -2691 c124 -71 229 -129 234
-129 5 0 44 20 88 45 l79 46 40 -22 c21 -13 38 -27 37 -31 -2 -4 -56 -39 -122
-77 l-119 -69 -191 110 c-412 238 -467 270 -461 277 3 3 45 29 93 57 l87 50 5
-64 5 -65 225 -128z"/>
</g>
</svg>
